<svg width="42" height="42" viewBox="0 0 42 42" fill="none" xmlns="http://www.w3.org/2000/svg">
<path d="M35.3932 35.2457H29.3701V25.8133C29.3701 23.5641 29.33 20.6686 26.2376 20.6686C23.1005 20.6686 22.6205 23.1192 22.6205 25.6495V35.245H16.5976V15.8482H22.3796V18.499H22.4607C23.638 16.4861 25.8351 15.2793 28.1656 15.3659C34.2701 15.3659 35.3958 19.3812 35.3958 24.605L35.3932 35.2457ZM9.8016 13.1968C7.88414 13.1968 6.3056 11.6192 6.3056 9.7017C6.3056 7.78425 7.88341 6.20643 9.80087 6.20643C11.7181 6.20643 13.2958 7.78388 13.2961 9.70097C13.2961 11.6181 11.7187 13.1966 9.8016 13.1968ZM12.813 35.2457H6.78378V15.8482H12.813V35.2457ZM38.3958 0.613156H3.75705C2.13105 0.594792 0.777417 1.91697 0.757599 3.54297V38.3255C0.77669 39.9524 2.13014 41.2761 3.75705 41.2586H38.3958C40.0267 41.2792 41.3849 39.9557 41.4067 38.3255V3.54061C41.3849 1.91115 40.0249 0.589155 38.3958 0.610609V0.613156Z" fill="#0A66C2"/>
</svg>
