<svg width="115" height="60" viewBox="0 0 115 60" fill="none" xmlns="http://www.w3.org/2000/svg">
<path d="M30.0246 60C24.0863 60 18.2813 58.2406 13.3438 54.9441C8.4063 51.6477 4.55798 46.9623 2.28549 41.4805C0.0129989 35.9987 -0.58159 29.9667 0.576918 24.1473C1.73542 18.3279 4.59499 12.9824 8.794 8.78681C12.993 4.59124 18.3429 1.73401 24.1671 0.576455C29.9913 -0.581101 36.0282 0.0129993 41.5145 2.28363C47.0008 4.55426 51.69 8.39943 54.9891 13.3329C58.2883 18.2664 60.0492 24.0666 60.0492 30L45.0369 30C45.0369 27.0333 44.1564 24.1332 42.5069 21.6665C40.8573 19.1997 38.5127 17.2771 35.7696 16.1418C33.0264 15.0065 30.0079 14.7095 27.0958 15.2882C24.1837 15.867 21.5088 17.2956 19.4093 19.3934C17.3098 21.4912 15.88 24.1639 15.3008 27.0737C14.7215 29.9834 15.0188 32.9994 16.155 35.7403C17.2913 38.4812 19.2155 40.8238 21.6842 42.4721C24.153 44.1203 27.0554 45 30.0246 45L30.0246 60Z" fill="white"/>
<path fill-rule="evenodd" clip-rule="evenodd" d="M75.0359 60H60.0493V30H75.0359V45H85.0269C86.995 45 88.9437 44.612 90.762 43.8582C92.5802 43.1044 94.2324 41.9995 95.624 40.6066C97.0156 39.2137 98.1195 37.5601 98.8727 35.7403C99.6258 33.9204 100.013 31.9698 100.013 30C100.013 28.0302 99.6258 26.0796 98.8727 24.2598C98.1195 22.4399 97.0156 20.7863 95.624 19.3934C94.2324 18.0005 92.5802 16.8956 90.762 16.1418C88.9438 15.388 86.995 15 85.0269 15V0C88.963 0 92.8606 0.77597 96.4971 2.28361C100.134 3.79125 103.438 6.00104 106.221 8.7868C109.004 11.5726 111.212 14.8797 112.718 18.5195C114.225 22.1593 115 26.0604 115 30C115 33.9397 114.225 37.8407 112.718 41.4805C111.212 45.1203 109.004 48.4275 106.221 51.2132C103.438 53.999 100.134 56.2088 96.4971 57.7164C92.8606 59.224 88.963 60 85.0269 60H75.0359Z" fill="white"/>
</svg>
